# xmcd
#
# Track frame offsets:
#	150
#	20229
#	43202
#	62188
#	79307
#	99238
#	124096
#	140549
#	156759
#	172563
#	189831
#	206558
#	227828
#	245008
#	265634
#	289790
#	310014
#	330634
#
# Disc length: 4709 seconds
#
# Revision: 0
# Processed by: cddbd v1.5.1PL0 Copyright (c) Steve Scherf et al.
# Submitted via: dBpowerAMP V4.0
#
DISCID=f8126312
DTITLE=ese - de evelyn
DYEAR=2003
DGENRE=Acoustic
TTITLE0=ENANITOS VERDES - Mi Primer Día Sin Ti
TTITLE1=DARIUS RUCKER - This Is My World
TTITLE2=RICARDO ARJONA - Amarte A Ti
TTITLE3=KYO - Deniere Danse
TTITLE4=RICARDO ARJONA - Dime Que No
TTITLE5=RICARDO ARJONA - Olvidarte
TTITLE6=AMERICAN HI-FI - Another Perfect Day
TTITLE7=LIBODO - No sera lo mismo sin ti 
TTITLE8=DOLORES DELIRIO - Silencio
TTITLE9=LOS PERICOS - Pupilas Lejanas
TTITLE10=MR BIG - Shine
TTITLE11=MARIA BESTAR - Pensando En Ti
TTITLE12=STILLWATER - Loves Come And Goes
TTITLE13=ENANITOS VERDES - Olvidarte
TTITLE14=R. KELLY - I Believe I Can Fly
TTITLE15=RICARDO ARJONA - Vivir Si n Ti Es Posible
TTITLE16=MATCH BOX 20 
TTITLE17=TK
EXTD=
EXTT0=
EXTT1=
EXTT2=
EXTT3=
EXTT4=
EXTT5=
EXTT6=
EXTT7=
EXTT8=
EXTT9=
EXTT10=
EXTT11=
EXTT12=
EXTT13=
EXTT14=
EXTT15=
EXTT16=
EXTT17=
PLAYORDER=
